<svg width="10" height="10" viewBox="0 0 10 10" fill="none" xmlns="http://www.w3.org/2000/svg">
<path d="M0.343657 4.44658C0.114505 4.71998 -0.000114874 5.0433 -0.000114842 5.41661C-0.000114812 5.75514 0.118796 6.04806 0.355807 6.29559C0.5933 6.54309 0.874508 6.66677 1.1995 6.66677L2.93066 6.66677C2.91403 6.72752 2.89735 6.7796 2.88071 6.823C2.86422 6.86639 2.84106 6.91418 2.81201 6.96627C2.78294 7.01837 2.76204 7.05745 2.74958 7.08345C2.67461 7.23094 2.61721 7.35255 2.57759 7.44795C2.53803 7.54354 2.49865 7.6737 2.45894 7.83863C2.4193 8.00348 2.39959 8.16848 2.39959 8.33341C2.39959 8.43753 2.4008 8.52224 2.40277 8.5873C2.40472 8.6524 2.41533 8.75009 2.43392 8.88031C2.45279 9.01047 2.47783 9.11899 2.509 9.20575C2.54031 9.29254 2.59035 9.39028 2.65898 9.4987C2.72776 9.60734 2.81105 9.6951 2.90906 9.76242C3.00704 9.82969 3.13199 9.8861 3.28407 9.93164C3.4363 9.97722 3.60807 10 3.79986 10C3.90817 10 4.00184 9.95875 4.08109 9.87627C4.1644 9.78948 4.23535 9.68099 4.29362 9.55083C4.35199 9.4206 4.39264 9.30775 4.41558 9.21223C4.4385 9.11676 4.46457 8.98434 4.49362 8.81512C4.53125 8.63274 4.55925 8.50153 4.57812 8.42125C4.59683 8.34096 4.63339 8.23572 4.6875 8.10554C4.74173 7.97527 4.80624 7.87117 4.88126 7.79301C5.01873 7.6498 5.22913 7.38937 5.51252 7.0118C5.71674 6.73406 5.92713 6.47149 6.14379 6.22408C6.36048 5.97662 6.5188 5.84861 6.61877 5.83992C6.72286 5.83125 6.81246 5.78677 6.88748 5.70643C6.9625 5.62614 7 5.53172 7 5.42324L7 1.2501C7 1.13725 6.96044 1.04072 6.88126 0.960433C6.80213 0.880053 6.70837 0.837753 6.60003 0.833398C6.45422 0.829042 6.12505 0.733658 5.61252 0.546858C5.29173 0.434189 5.04073 0.348336 4.85948 0.289825C4.67827 0.231313 4.42497 0.168331 4.10022 0.100971C3.77516 0.033726 3.47522 3.08146e-07 3.20029 3.32181e-07L3.09401 3.41472e-07L2.61898 3.83001e-07L2.39403 4.02666e-07C1.83974 0.00866554 1.4295 0.178 1.16274 0.507774C0.921157 0.80729 0.819124 1.20009 0.856491 1.6862C0.694018 1.84678 0.581435 2.05068 0.519024 2.29814C0.448295 2.56274 0.448295 2.81668 0.519024 3.05969C0.327392 3.32445 0.237793 3.62175 0.25038 3.95162C0.249855 4.09065 0.281028 4.25553 0.343657 4.44658Z" fill="#FF9900"/>
<path d="M7.79998 5.83337L9.59992 5.83337C9.70833 5.83337 9.80209 5.79212 9.88124 5.70965C9.9604 5.62721 10 5.52955 10 5.4167L10 1.24989C10 1.1372 9.9604 1.03949 9.88122 0.956943C9.802 0.874602 9.70824 0.833329 9.5999 0.833329L7.79998 0.833329C7.69166 0.833329 7.59795 0.874603 7.51875 0.956943C7.43959 1.03949 7.40001 1.13718 7.40001 1.24989L7.40001 5.4167C7.40001 5.52955 7.43961 5.62719 7.51875 5.70965C7.59793 5.79215 7.69164 5.83337 7.79998 5.83337Z" fill="#FF9900"/>
</svg>
