<svg width="22" height="22" viewBox="0 0 22 22" fill="none" xmlns="http://www.w3.org/2000/svg">
<path d="M20.1004 11.765C20.1004 11.4889 19.8766 11.265 19.6004 11.265C19.3243 11.265 19.1004 11.4889 19.1004 11.765H20.1004ZM10.5004 3.13007C10.7765 3.13007 11.0004 2.90621 11.0004 2.63007C11.0004 2.35393 10.7765 2.13007 10.5004 2.13007V3.13007ZM20.9004 4.58881L21.2516 4.94465C21.3472 4.85034 21.4008 4.72156 21.4004 4.58731C21.4 4.45306 21.3456 4.3246 21.2495 4.23087L20.9004 4.58881ZM17.6309 1.40002L17.98 1.04208C17.785 0.851859 17.4736 0.852792 17.2797 1.04418L17.6309 1.40002ZM7.84121 11.0632L7.48996 10.7074C7.39478 10.8013 7.34121 10.9295 7.34121 11.0632H7.84121ZM7.84121 14.252H7.34121C7.34121 14.5282 7.56506 14.752 7.84121 14.752V14.252ZM11.1107 14.252V14.752C11.2422 14.752 11.3684 14.7002 11.4619 14.6079L11.1107 14.252ZM17.6004 20.4H3.40039V21.4H17.6004V20.4ZM1.90039 18.9V4.63007H0.900391V18.9H1.90039ZM19.1004 11.765V18.9H20.1004V11.765H19.1004ZM3.40039 3.13007H10.5004V2.13007H3.40039V3.13007ZM21.2495 4.23087L17.98 1.04208L17.2818 1.75797L20.5513 4.94675L21.2495 4.23087ZM7.34121 11.0632V14.252H8.34121V11.0632H7.34121ZM7.84121 14.752H11.1107V13.752H7.84121V14.752ZM11.4619 14.6079L18.0211 8.13343L17.3186 7.42175L10.7594 13.8962L11.4619 14.6079ZM18.0211 8.13344L21.2516 4.94465L20.5491 4.23296L17.3186 7.42175L18.0211 8.13344ZM17.2797 1.04418L14.0491 4.23296L14.7516 4.94465L17.9822 1.75587L17.2797 1.04418ZM14.0491 4.23296L7.48996 10.7074L8.19245 11.4191L14.7516 4.94465L14.0491 4.23296ZM18.019 7.41965L14.7495 4.23087L14.0513 4.94675L17.3208 8.13553L18.019 7.41965ZM1.90039 4.63007C1.90039 3.80164 2.57196 3.13007 3.40039 3.13007V2.13007C2.01968 2.13007 0.900391 3.24936 0.900391 4.63007H1.90039ZM3.40039 20.4C2.57196 20.4 1.90039 19.7285 1.90039 18.9H0.900391C0.900391 20.2807 2.01968 21.4 3.40039 21.4V20.4ZM17.6004 21.4C18.9811 21.4 20.1004 20.2807 20.1004 18.9H19.1004C19.1004 19.7285 18.4288 20.4 17.6004 20.4V21.4Z" fill="#04C800"/>
</svg>
