<svg width="18" height="12" viewBox="0 0 18 12" fill="none" xmlns="http://www.w3.org/2000/svg">
<path fill-rule="evenodd" clip-rule="evenodd" d="M9 12C13.9706 12 18 6 18 6C18 6 13.9706 0 9 0C4.02944 0 0 6 0 6C0 6 4.02944 12 9 12ZM9 3.81818C7.83046 3.81818 6.88235 4.79502 6.88235 6C6.88235 7.20499 7.83046 8.18182 9 8.18182C10.1695 8.18182 11.1176 7.20499 11.1176 6C11.1176 4.79502 10.1695 3.81818 9 3.81818ZM5.82353 6C5.82353 4.19252 7.24568 2.72727 9 2.72727C10.7543 2.72727 12.1765 4.19252 12.1765 6C12.1765 7.80748 10.7543 9.27273 9 9.27273C7.24568 9.27273 5.82353 7.80748 5.82353 6Z" fill="#7E7E8B"/>
</svg>
