<svg width="10" height="10" viewBox="0 0 10 10" fill="none" xmlns="http://www.w3.org/2000/svg">
<path d="M9.65634 5.55342C9.8855 5.28002 10.0001 4.9567 10.0001 4.58339C10.0001 4.24486 9.88121 3.95194 9.64419 3.70441C9.4067 3.45691 9.12549 3.33323 8.8005 3.33323H7.06934C7.08598 3.27248 7.10266 3.2204 7.11929 3.177C7.13578 3.13361 7.15894 3.08582 7.18799 3.03373C7.21706 2.98163 7.23796 2.94255 7.25042 2.91655C7.32539 2.76906 7.38279 2.64745 7.42241 2.55205C7.46197 2.45646 7.50135 2.3263 7.54106 2.16137C7.58071 1.99652 7.60041 1.83152 7.60041 1.66659C7.60041 1.56247 7.5992 1.47776 7.59723 1.4127C7.59529 1.3476 7.58467 1.24991 7.56608 1.11969C7.54721 0.989529 7.52217 0.88101 7.491 0.794246C7.45969 0.707458 7.40965 0.609725 7.34102 0.501298C7.27224 0.392665 7.18895 0.304897 7.09094 0.237583C6.99296 0.170314 6.86801 0.1139 6.71593 0.0683629C6.5637 0.02278 6.39193 0 6.20014 0C6.09183 0 5.99816 0.0412503 5.91891 0.123728C5.8356 0.210516 5.76465 0.319012 5.70638 0.44917C5.64802 0.579397 5.60736 0.692248 5.58442 0.787769C5.5615 0.883245 5.53543 1.01566 5.50638 1.18488C5.46875 1.36726 5.44075 1.49847 5.42188 1.57875C5.40317 1.65904 5.36661 1.76428 5.3125 1.89446C5.25827 2.02473 5.19376 2.12883 5.11874 2.207C4.98127 2.3502 4.77087 2.61063 4.48748 2.9882C4.28326 3.26594 4.07287 3.52851 3.85621 3.77592C3.63952 4.02338 3.4812 4.15139 3.38123 4.16008C3.27714 4.16875 3.18754 4.21323 3.11252 4.29357C3.0375 4.37386 3 4.46828 3 4.57676V8.7499C3 8.86275 3.03956 8.95928 3.11874 9.03957C3.19787 9.11995 3.29163 9.16225 3.39997 9.1666C3.54578 9.17096 3.87495 9.26634 4.38748 9.45314C4.70827 9.56581 4.95927 9.65166 5.14052 9.71018C5.32173 9.76869 5.57503 9.83167 5.89978 9.89903C6.22484 9.96628 6.52478 10 6.79971 10H6.90599H7.38102H7.60597C8.16026 9.99133 8.5705 9.822 8.83726 9.49223C9.07884 9.19271 9.18088 8.79991 9.14351 8.3138C9.30598 8.15322 9.41857 7.94932 9.48098 7.70186C9.55171 7.43726 9.55171 7.18333 9.48098 6.94032C9.67261 6.67555 9.76221 6.37825 9.74962 6.04838C9.75014 5.90935 9.71897 5.74447 9.65634 5.55342Z" fill="#04C800"/>
<path d="M2.20002 4.16663H0.400075C0.291672 4.16663 0.197914 4.20788 0.118757 4.29035C0.0396004 4.37279 0 4.47045 0 4.5833V8.75011C0 8.8628 0.0396004 8.96051 0.118779 9.04306C0.198002 9.1254 0.29176 9.16667 0.400097 9.16667H2.20002C2.30834 9.16667 2.40205 9.1254 2.48125 9.04306C2.56041 8.96051 2.59999 8.86282 2.59999 8.75011V4.5833C2.59999 4.47045 2.56039 4.37281 2.48125 4.29035C2.40207 4.20785 2.30836 4.16663 2.20002 4.16663Z" fill="#04C800"/>
</svg>
