<svg width="107" height="20" viewBox="0 0 107 20" fill="none" xmlns="http://www.w3.org/2000/svg">
<g clip-path="url(#clip0)">
<rect x="7.58154" y="12.4129" width="11.9761" height="3.25531" fill="#04C800"/>
<rect y="12.4129" width="5.4437" height="3.25531" fill="#04C800"/>
<rect x="5.69678" y="1.66666" width="8.16556" height="3.25531" fill="#04C800"/>
<rect x="2.71289" y="7.03973" width="8.70992" height="3.25531" fill="#04C800"/>
<rect x="13.5605" y="7.03979" width="3.26622" height="3.25531" fill="#04C800"/>
<path d="M25.6816 15.5017H28.7769V1.92432H25.6816V15.5017Z" fill="#DDE2E8"/>
<path d="M31.1543 15.5017H33.9077V9.76689C33.9077 8.30472 34.8002 7.58313 35.9775 7.58313C37.1929 7.58313 37.7246 8.22876 37.7246 9.577V15.5017H40.478V9.17823C40.478 6.51972 39.0918 5.34239 37.1359 5.34239C35.4838 5.34239 34.4014 6.15893 33.9077 7.14637V5.57026H31.1543V15.5017Z" fill="#DDE2E8"/>
<path d="M46.8629 19.1666C50.129 19.1666 52.0849 17.6664 52.1039 14.7231V5.57026H49.3694V7.05143C48.7998 6.04499 47.8313 5.34239 46.2172 5.34239C43.7486 5.34239 41.8497 7.33627 41.8497 10.1847V10.3176C41.8497 13.2609 43.7676 15.0649 46.1792 15.0649C47.6414 15.0649 48.8188 14.1914 49.3694 13.2229V14.7231C49.3694 16.2802 48.5339 17.1537 46.8629 17.1537C45.4577 17.1537 44.831 16.5841 44.6601 15.7105H41.9256C42.1915 17.7614 43.6537 19.1666 46.8629 19.1666ZM46.9958 12.9951C45.6286 12.9951 44.6601 11.9697 44.6601 10.3176V10.1657C44.6601 8.53259 45.5146 7.43121 47.0528 7.43121C48.5529 7.43121 49.4454 8.45663 49.4454 10.1467V10.2796C49.4454 11.9697 48.439 12.9951 46.9958 12.9951Z" fill="#DDE2E8"/>
<path d="M57.7768 15.6916C58.5174 15.6916 59.0681 15.5586 59.4479 15.4257V13.2989C59.125 13.4318 58.8212 13.4888 58.4035 13.4888C57.7009 13.4888 57.3021 13.109 57.3021 12.3115V7.52616H59.3909V5.57026H57.3021V3.42447H54.5676V5.57026H53.2953V7.52616H54.5676V12.5583C54.5676 14.6282 55.688 15.6916 57.7768 15.6916Z" fill="#DDE2E8"/>
<path d="M65.5046 15.7105C68.22 15.7105 69.9291 14.5142 70.2519 12.3684H67.6503C67.4794 13.204 66.8528 13.7546 65.5805 13.7546C64.0804 13.7546 63.1879 12.8052 63.1119 11.1531H70.2709V10.3935C70.2709 6.84254 67.9922 5.34239 65.4286 5.34239C62.5422 5.34239 60.3205 7.37424 60.3205 10.5075V10.6594C60.3205 13.8306 62.5043 15.7105 65.5046 15.7105ZM63.1499 9.46307C63.3588 8.05786 64.1943 7.24132 65.4286 7.24132C66.7389 7.24132 67.4984 7.96291 67.5934 9.46307H63.1499Z" fill="#DDE2E8"/>
<path d="M71.6934 15.5017H74.4469V10.5265C74.4469 8.62754 75.6242 7.96291 77.6561 7.9819V5.41835C76.042 5.43734 75.0735 6.13994 74.4469 7.46919V5.57026H71.6934V15.5017Z" fill="#DDE2E8"/>
<path d="M79.0837 15.5017H81.8371V9.76689C81.8371 8.30472 82.7296 7.58313 83.907 7.58313C85.1223 7.58313 85.654 8.22876 85.654 9.577V15.5017H88.4074V9.17823C88.4074 6.51972 87.0212 5.34239 85.0653 5.34239C83.4132 5.34239 82.3309 6.15893 81.8371 7.14637V5.57026H79.0837V15.5017Z" fill="#DDE2E8"/>
<path d="M94.9632 15.7105C97.6787 15.7105 99.3877 14.5142 99.7105 12.3684H97.109C96.9381 13.204 96.3114 13.7546 95.0391 13.7546C93.539 13.7546 92.6465 12.8052 92.5705 11.1531H99.7295V10.3935C99.7295 6.84254 97.4508 5.34239 94.8872 5.34239C92.0009 5.34239 89.7791 7.37424 89.7791 10.5075V10.6594C89.7791 13.8306 91.9629 15.7105 94.9632 15.7105ZM92.6085 9.46307C92.8174 8.05786 93.6529 7.24132 94.8872 7.24132C96.1975 7.24132 96.9571 7.96291 97.052 9.46307H92.6085Z" fill="#DDE2E8"/>
<path d="M104.779 15.6916C105.52 15.6916 106.07 15.5586 106.45 15.4257V13.2989C106.127 13.4318 105.823 13.4888 105.406 13.4888C104.703 13.4888 104.304 13.109 104.304 12.3115V7.52616H106.393V5.57026H104.304V3.42447H101.57V5.57026H100.298V7.52616H101.57V12.5583C101.57 14.6282 102.69 15.6916 104.779 15.6916Z" fill="#DDE2E8"/>
</g>
<defs>
<clipPath id="clip0">
<rect width="106.667" height="20" fill="white"/>
</clipPath>
</defs>
</svg>
