<svg width="16" height="17" viewBox="0 0 16 17" fill="none" xmlns="http://www.w3.org/2000/svg">
<path d="M10.7352 14.125H13.5263C14.6164 14.125 15.5 13.2389 15.5 12.1458C15.5 11.1883 14.8219 10.3896 13.9211 10.2062V6.60416C13.9211 3.32497 11.2701 0.666656 8 0.666656C4.72989 0.666656 2.07895 3.32497 2.07895 6.60416V10.2062C1.17806 10.3896 0.5 11.1883 0.5 12.1458C0.5 13.2389 1.38365 14.125 2.47368 14.125H5.26482M10.7352 14.125C10.5436 15.4678 9.39203 16.5 8 16.5C6.60797 16.5 5.45636 15.4678 5.26482 14.125M10.7352 14.125H5.26482" stroke="#D0D0DD"/>
</svg>
