<svg width="18" height="16" viewBox="0 0 18 16" fill="none" xmlns="http://www.w3.org/2000/svg">
<path d="M15.0213 12.4624C14.7452 12.4624 14.5213 12.6863 14.5213 12.9624C14.5213 13.2386 14.7452 13.4624 15.0213 13.4624V12.4624ZM11.6931 14.1943H1.63117V15.1943H11.6931V14.1943ZM6.66213 8.25254C9.69216 8.25254 12.1485 10.7089 12.1485 13.7389H13.1485C13.1485 10.1566 10.2444 7.25254 6.66213 7.25254V8.25254ZM6.66213 7.25254C3.07982 7.25254 0.175781 10.1566 0.175781 13.7389H1.17578C1.17578 10.7089 3.63211 8.25254 6.66213 8.25254V7.25254ZM9.38556 4.52912C9.38556 6.03322 8.16624 7.25254 6.66213 7.25254V8.25254C8.71852 8.25254 10.3856 6.5855 10.3856 4.52912H9.38556ZM6.66213 7.25254C5.15803 7.25254 3.93871 6.03322 3.93871 4.52912H2.93871C2.93871 6.5855 4.60575 8.25254 6.66213 8.25254V7.25254ZM3.93871 4.52912C3.93871 3.02501 5.15803 1.80569 6.66213 1.80569V0.805695C4.60575 0.805695 2.93871 2.47273 2.93871 4.52912H3.93871ZM6.66213 1.80569C8.16624 1.80569 9.38556 3.02501 9.38556 4.52912H10.3856C10.3856 2.47273 8.71852 0.805695 6.66213 0.805695V1.80569ZM13.6398 8.85755C15.3983 8.85755 16.8238 10.283 16.8238 12.0415H17.8238C17.8238 9.73075 15.9506 7.85755 13.6398 7.85755V8.85755ZM14.9818 6.51559C14.9818 7.25673 14.381 7.85755 13.6398 7.85755V8.85755C14.9333 8.85755 15.9818 7.80902 15.9818 6.51559H14.9818ZM13.6398 7.85755C12.8987 7.85755 12.2979 7.25673 12.2979 6.51559H11.2979C11.2979 7.80902 12.3464 8.85755 13.6398 8.85755V7.85755ZM12.2979 6.51559C12.2979 5.77445 12.8987 5.17364 13.6398 5.17364V4.17364C12.3464 4.17364 11.2979 5.22216 11.2979 6.51559H12.2979ZM13.6398 5.17364C14.381 5.17364 14.9818 5.77445 14.9818 6.51559H15.9818C15.9818 5.22216 14.9333 4.17364 13.6398 4.17364V5.17364ZM16.4028 12.4624H15.0213V13.4624H16.4028V12.4624ZM16.8238 12.0415C16.8238 12.274 16.6353 12.4624 16.4028 12.4624V13.4624C17.1876 13.4624 17.8238 12.8262 17.8238 12.0415H16.8238ZM1.63117 14.1943C1.37967 14.1943 1.17578 13.9904 1.17578 13.7389H0.175781C0.175781 14.5427 0.82738 15.1943 1.63117 15.1943V14.1943ZM12.1485 13.7389C12.1485 13.9904 11.9446 14.1943 11.6931 14.1943V15.1943C12.4969 15.1943 13.1485 14.5427 13.1485 13.7389H12.1485Z" fill="#D0D0DD"/>
</svg>
